{
    "asset" : {
        "generator" : "Khronos glTF Blender I/O v3.3.27",
        "version" : "2.0"
    },
    "scene" : 0,
    "scenes" : [
        {
            "name" : "Scene",
            "nodes" : [
                0
            ]
        }
    ],
    "nodes" : [
        {
            "mesh" : 0,
            "name" : "Model"
        }
    ],
    "animations" : [
        {
            "channels" : [
                {
                    "sampler" : 0,
                    "target" : {
                        "node" : 0,
                        "path" : "translation"
                    }
                },
                {
                    "sampler" : 1,
                    "target" : {
                        "node" : 0,
                        "path" : "rotation"
                    }
                },
                {
                    "sampler" : 2,
                    "target" : {
                        "node" : 0,
                        "path" : "scale"
                    }
                }
            ],
            "name" : "Model",
            "samplers" : [
                {
                    "input" : 5,
                    "interpolation" : "LINEAR",
                    "output" : 6
                },
                {
                    "input" : 5,
                    "interpolation" : "LINEAR",
                    "output" : 7
                },
                {
                    "input" : 5,
                    "interpolation" : "LINEAR",
                    "output" : 8
                }
            ]
        }
    ],
    "materials" : [
        {
            "alphaMode" : "BLEND",
            "doubleSided" : true,
            "name" : "Defaultskin",
            "pbrMetallicRoughness" : {}
        }
    ],
    "meshes" : [
        {
            "name" : "Man_01:Proxy",
            "primitives" : [
                {
                    "attributes" : {
                        "POSITION" : 0,
                        "NORMAL" : 1,
                        "TEXCOORD_0" : 2,
                        "COLOR_0" : 3
                    },
                    "indices" : 4,
                    "material" : 0
                }
            ]
        }
    ],
    "accessors" : [
        {
            "bufferView" : 0,
            "componentType" : 5126,
            "count" : 54228,
            "max" : [
                1.1539589166641235,
                0.19929182529449463,
                3.4966766834259033
            ],
            "min" : [
                -1.1545789241790771,
                -0.7901592254638672,
                0.00042007406591437757
            ],
            "type" : "VEC3"
        },
        {
            "bufferView" : 1,
            "componentType" : 5126,
            "count" : 54228,
            "type" : "VEC3"
        },
        {
            "bufferView" : 2,
            "componentType" : 5126,
            "count" : 54228,
            "type" : "VEC2"
        },
        {
            "bufferView" : 3,
            "componentType" : 5123,
            "count" : 54228,
            "normalized" : true,
            "type" : "VEC4"
        },
        {
            "bufferView" : 4,
            "componentType" : 5123,
            "count" : 85848,
            "type" : "SCALAR"
        },
        {
            "bufferView" : 5,
            "componentType" : 5126,
            "count" : 5,
            "max" : [
                0.125
            ],
            "min" : [
                -0.041666666666666664
            ],
            "type" : "SCALAR"
        },
        {
            "bufferView" : 6,
            "componentType" : 5126,
            "count" : 5,
            "type" : "VEC3"
        },
        {
            "bufferView" : 7,
            "componentType" : 5126,
            "count" : 5,
            "type" : "VEC4"
        },
        {
            "bufferView" : 8,
            "componentType" : 5126,
            "count" : 5,
            "type" : "VEC3"
        }
    ],
    "bufferViews" : [
        {
            "buffer" : 0,
            "byteLength" : 650736,
            "byteOffset" : 0,
            "target" : 34962
        },
        {
            "buffer" : 0,
            "byteLength" : 650736,
            "byteOffset" : 650736,
            "target" : 34962
        },
        {
            "buffer" : 0,
            "byteLength" : 433824,
            "byteOffset" : 1301472,
            "target" : 34962
        },
        {
            "buffer" : 0,
            "byteLength" : 433824,
            "byteOffset" : 1735296,
            "target" : 34962
        },
        {
            "buffer" : 0,
            "byteLength" : 171696,
            "byteOffset" : 2169120,
            "target" : 34963
        },
        {
            "buffer" : 0,
            "byteLength" : 20,
            "byteOffset" : 2340816
        },
        {
            "buffer" : 0,
            "byteLength" : 60,
            "byteOffset" : 2340836
        },
        {
            "buffer" : 0,
            "byteLength" : 80,
            "byteOffset" : 2340896
        },
        {
            "buffer" : 0,
            "byteLength" : 60,
            "byteOffset" : 2340976
        }
    ],
    "buffers" : [
        {
            "byteLength" : 2341036,
            "uri" : "data:application/octet-stream;base64,"
        }
    ]
}
